<?xml version="1.0" encoding="UTF-8"?>
<svg id="Layer_2" data-name="Layer 2" xmlns="http://www.w3.org/2000/svg" viewBox="0 0 1331.41 776.15">
  <defs>
    <style>
      .cls-1 {
        fill: #282b3a;
      }
    </style>
  </defs>
  <g id="_ÎÓÈ_1" data-name="—ÎÓÈ_1">
    <g>
      <path class="cls-1" d="M1116.55,316.28c-63.54-43.56-128.83-78.53-194.06-103.93-82.03-31.95-164.2-48.79-244.23-50.06-80.24-1.27-162.6,14.03-244.81,45.47-65.34,24.99-130.72,60.18-194.35,104.6-108.1,75.46-173.08,150.7-175.8,153.86-7.73,9.02-7.04,22.51,1.57,30.69,195.16,185.41,401.08,279.25,612.54,279.25,9.82,0,19.66-.2,29.51-.61,79.66-3.28,160.02-20.06,238.87-49.89,62.85-23.77,124.87-55.84,184.35-95.3,101.28-67.2,159.63-132.04,162.06-134.77,7.54-8.45,7.56-21.21.03-29.68-2.71-3.05-67.67-75.58-175.69-149.63ZM677.9,229.42c105.98,0,192.21,86.22,192.21,192.21s-86.22,192.21-192.21,192.21-192.21-86.22-192.21-192.21,86.22-192.21,192.21-192.21ZM1104.23,594.01c-88.77,58.7-230.15,130.12-399.59,136.98-203.4,8.21-402.84-76.35-593.02-251.45,24.3-25.51,78.15-78.34,153.02-130.6,71.53-49.94,173.59-106.77,291.95-130.62-69.13,41.4-115.5,117.04-115.5,203.31,0,130.58,106.24,236.82,236.82,236.82s236.82-106.24,236.82-236.82c0-82.97-42.9-156.1-107.67-198.4,114.7,26.72,213.53,81.48,283.3,129.19,75.49,51.63,129.98,103.48,154.33,128.21-22.67,22.55-71.51,67.79-140.46,113.39Z"/>
      <path class="cls-1" d="M677.9,548.44c70.03,0,126.8-56.77,126.8-126.82s-56.77-126.8-126.8-126.8c-13.86,0-27.21,2.23-39.71,6.35,26.82,7.95,46.38,32.8,46.38,62.22,0,35.84-29.07,64.91-64.93,64.91-29.42,0-54.24-19.56-62.19-46.36-4.13,12.47-6.35,25.82-6.35,39.68,0,70.05,56.77,126.82,126.8,126.82Z"/>
      <path class="cls-1" d="M1144.58,139.81c-66.66-40.23-136.5-72.37-207.58-95.52C847.95,15.29,756.71.39,665.8,0h-.19c-90.91.39-182.15,15.29-271.2,44.29-71.09,23.15-140.93,55.29-207.58,95.52C73.23,208.38,8.77,276.11,6.08,278.96c-8.45,8.96-8.04,23.06.91,31.52,8.95,8.46,23.07,8.06,31.53-.89.63-.66,63.83-66.88,172.63-132.34,99.79-60.04,259.67-131.78,454.56-132.64,194.89.86,354.76,72.6,454.56,132.64,108.67,65.38,171.85,131.52,172.62,132.34,4.39,4.65,10.3,6.99,16.22,6.99,5.49,0,11-2.02,15.3-6.08,8.96-8.45,9.37-22.57.92-31.53-2.69-2.85-67.15-70.58-180.75-139.15Z"/>
    </g>
  </g>
</svg>