<?xml version="1.0" encoding="UTF-8"?>
<svg id="Layer_2" data-name="Layer 2" xmlns="http://www.w3.org/2000/svg" viewBox="0 0 1331.41 850.66">
  <defs>
    <style>
      .cls-1 {
        fill: #282b3a;
      }
    </style>
  </defs>
  <g id="_ÎÓÈ_1" data-name="—ÎÓÈ_1">
    <g>
      <path class="cls-1" d="M1290.78,465.49h0c-2.44-1.9-60.94-47.12-161.91-93.76-59.29-27.38-121.12-49.64-183.79-66.14-78.63-20.7-158.78-32.35-238.23-34.63-9.73-.28-19.64-.42-29.43-.42-210.84,0-416.31,65.18-610.69,193.72-6.2,4.1-9.81,10.14-9.9,16.58v.09s0,.09,0,.09c.09,6.43,3.7,12.48,9.9,16.58,50.82,33.61,102.41,62.88,154.64,87.79l-51.95,137.58c-4.49,11.89,1.51,25.16,13.39,29.65,2.68,1.01,5.42,1.49,8.12,1.49,9.29,0,18.05-5.67,21.52-14.88l50.9-134.8c55.34,23.77,111.38,42.69,168,56.73l-34.32,134.64c-3.14,12.31,4.3,24.83,16.61,27.97,1.91.49,3.82.72,5.7.72,10.26,0,19.62-6.92,22.27-17.33l34.65-135.92c58.85,11.85,118.27,18.47,178.15,19.82,0,.09,0,.18,0,.27v136.32c0,12.7,10.3,23,23,23s23-10.3,23-23v-136.32c0-.1,0-.19,0-.28,2.15-.05,4.3-.08,6.44-.14,57.18-1.64,114.71-8.16,171.79-19.39l34.58,135.64c2.65,10.4,12.01,17.33,22.27,17.33,1.88,0,3.79-.23,5.7-.72,12.31-3.14,19.75-15.66,16.61-27.97l-34.19-134.13c7.17-1.73,14.33-3.51,21.47-5.39,49.85-13.12,99.17-29.9,147.1-49.99l50.2,132.94c3.48,9.21,12.23,14.88,21.52,14.88,2.7,0,5.45-.48,8.12-1.49,11.88-4.49,17.88-17.76,13.39-29.65l-51.11-135.36c97.75-45.78,154.08-89.36,156.47-91.22,5.22-4.07,8.14-9.53,8.22-15.36v-.09s0-.09,0-.09c-.08-5.83-3-11.29-8.22-15.36ZM1097.5,552.76c-87.38,40.23-226.55,89.16-393.3,93.86-196.31,5.52-389.15-50.22-573.21-165.68,184.07-115.46,376.89-171.22,573.21-165.68,166.75,4.7,305.92,53.63,393.3,93.86,60.14,27.69,104.71,55.15,129.63,71.82-24.93,16.67-69.5,44.14-129.63,71.82Z"/>
      <path class="cls-1" d="M1325.33,278.96c-2.69-2.85-67.15-70.58-180.75-139.15-66.66-40.23-136.5-72.37-207.58-95.52C847.95,15.29,756.71.39,665.8,0h-.19c-90.91.39-182.15,15.29-271.2,44.29-71.09,23.15-140.93,55.29-207.58,95.52C73.23,208.38,8.77,276.11,6.08,278.96c-8.45,8.96-8.04,23.06.91,31.52,8.95,8.46,23.07,8.06,31.53-.89.63-.66,63.83-66.88,172.63-132.34,99.79-60.04,259.67-131.78,454.56-132.64,194.89.86,354.76,72.6,454.56,132.64,108.67,65.38,171.85,131.52,172.62,132.34,4.39,4.65,10.3,6.99,16.22,6.99,5.49,0,11-2.02,15.3-6.08,8.96-8.45,9.37-22.57.92-31.53Z"/>
    </g>
  </g>
</svg>