<?xml version="1.0" encoding="UTF-8"?>
<svg id="Layer_2" data-name="Layer 2" xmlns="http://www.w3.org/2000/svg" viewBox="0 0 801.82 1386.94">
  <defs>
    <style>
      .cls-1 {
        stroke-width: 12px;
      }

      .cls-1, .cls-2 {
        fill: #fff;
      }

      .cls-1, .cls-3, .cls-4, .cls-5, .cls-6 {
        stroke: #000;
        stroke-miterlimit: 10;
      }

      .cls-1, .cls-3, .cls-4, .cls-6 {
        stroke-linecap: round;
      }

      .cls-2 {
        opacity: .24;
      }

      .cls-7 {
        fill: #f2f2f2;
        opacity: .27;
      }

      .cls-8 {
        fill: #382a1a;
      }

      .cls-3 {
        stroke-width: 12.67px;
      }

      .cls-3, .cls-4, .cls-5 {
        fill: #f79e36;
      }

      .cls-4 {
        stroke-width: 11.59px;
      }

      .cls-5, .cls-6 {
        stroke-width: 14px;
      }

      .cls-6 {
        fill: none;
      }
    </style>
  </defs>
  <g id="sidedog_2.0" data-name="sidedog 2.0">
    <path class="cls-5" d="M85.31,278.32s14.05,37.27,19.81,79.86c2.11,15.62-7.2,138.41-7.2,138.41,0,0-94.67,208.12-90.8,246.58s40.69,210.65,40.69,210.65c10.35,28.44,44.36,24.72,53.12-4.96,0,0-28.01-184.69-30.29-207.31-2.28-22.62,36.09-108.39,36.09-108.39,1.08,123.11,5.2,248.56,32.9,338.75,37.93,88.69,69.61,72.65,71.85,87.3,4.83,31.66,8.57,163.09,14.11,251.05,1.37,21.8-54.5,10.02-79.77,17.55-18.53,5.52-8.85,32.18-7.18,35.9,9.82,21.81,124.33,21.58,137.9-.14,2.93-18.84-1.76-241.96,9.61-292.28,4.59-20.32,22.59-20.29,91.32-25.82,76.9-6.19,112.5-1.71,114.46,14.02,0,0,11.02,161.48,16.57,249.44,1.37,21.8-48.44,8.65-73.7,16.18-18.53,5.52-14.92,33.55-13.25,37.27,9.82,21.81,124.99,14.69,138.55-7.02,2.93-18.84,2.09-304.27,2.09-304.27-1.55-26.63,38.61,10.27,60.19-88.9,24.5-112.58,6.87-290.35-11.85-427.65l-.54-6.44s121.46,96.37,121.46,119.1-98.16,129.91-98.16,129.91l2.54,81.21s158.98-177.21,158.98-215.86-196.44-191.81-196.44-191.81l-.57-4.02c-8.2-54.37-14.44-93.62-14.12-105.92.42-16,6.2-54.01,10.45-80.15,2.53-15.55,4.52-26.9,4.52-26.9,41.14-27.89,32.23-132.37,33.38-157.69,5.76-31.08,52.58-45.8-16.11-64.46-93.23-25.32-153.09,63.31-192.74,95.54-63.79-33.64-146.63,2.11-169.84,0-37.98-3.45-63.31-42.59-90.93-37.98s-29.93,27.62-58.7,41.44c-28.78,13.81-57.55,1.15-72.51,16.11s1.15,128.91,10.36,146.18,67.28-9.12,82.87-33.38c0,0,87.48-77.12,95.54-80.57"/>
    <ellipse class="cls-1" cx="207.08" cy="290.37" rx="33.24" ry="30.08"/>
    <ellipse class="cls-1" cx="399.3" cy="290.37" rx="33.24" ry="30.08"/>
    <path class="cls-8" d="M293.98,331.21c24.17,0,34.53,4.6,47.19,12.66s8.7,73.71-47.19,73.67c-32.98-.02-48.31-18.4-48.34-56.4-.02-24.17,48.34-29.93,48.34-29.93Z"/>
    <path class="cls-6" d="M391.3,448.78c-56.7,34.94-125.19,33.85-156.21,24.4"/>
    <path class="cls-2" d="M490.11,184.81s16.16,34.06,19.63,47.34c3.46,13.28,15.59,24.25,25.98,23.67,3.9-.22,5.67-11,12.47-25.55,20.87-19.03,28.07-59.52,28.79-77.92.44-11.1,1.84-53.4.61-73.65,2.26-10.45,13.27-25.9,12.89-27.62-2.39-10.77-33.73-15.03-48.99-13.48-16.74,1.71-76.31,32.67-73.98,36.2,0,0-3.92,4.49,2.52,20.23.19,8.33.32,32.6,28.82,44.29-12.36,8.23-12.02,39.44-8.75,46.48Z"/>
    <ellipse cx="276.64" cy="375.47" rx="6.62" ry="14.37"/>
    <ellipse cx="317.36" cy="375.72" rx="6.62" ry="14.37"/>
    <g id="pupils">
      <ellipse cx="206.78" cy="291.3" rx="10.04" ry="8.67"/>
      <ellipse cx="399.92" cy="290.83" rx="10.04" ry="8.67"/>
    </g>
    <path class="cls-7" d="M301.14,1050.43s-94.42-91.43-106.65-266.03,42.88-214.04,122.83-219.63c167.85-11.75,205.19,104.09,211.71,217.85s-60.22,259.68-60.22,259.68"/>
    <path class="cls-3" d="M648.95,759.63c-6.09-9.41-14.41-14.01-29.29-18.69-26.46-8.32-55.5-7.16-61.83,18.7-6.33,25.86,6.79,22.44,6.79,22.44,0,0-12,10.7-6.76,35.24,5.24,24.54,18.63,29.2,18.63,29.2,0,0-7.28,1.11,3.64,22.85,10.93,21.73,27.79,19.9,41.45,14.68,13.66-5.22,30.78-27.81,36.83-43.79,1.16-3.05,1.97-6.68,2.53-10.55,2.38-16.38.21-37.09.21-37.09-4.08-15.44-7.46-25.66-12.2-32.98"/>
    <path class="cls-4" d="M86.7,906.15c31.17-1.27,39.19,1.79,52.55,24.23,13.36,22.44,19.59,49.98,0,63.24-19.59,13.26-20.04,0-20.04,0,0,0-5.79,14.28-27.16,16.32s-28.5-9.18-28.5-9.18c0,0,.89,7.14-19.59,3.06-20.49-4.08-23.16-20.4-22.27-34.68.89-14.28,15.14-36.72,26.72-46.92,11.58-10.2,38.3-16.07,38.3-16.07Z"/>
  </g>
</svg>