<?xml version="1.0" encoding="UTF-8"?>
<svg id="Layer_2" data-name="Layer 2" xmlns="http://www.w3.org/2000/svg" viewBox="0 0 686.51 577.78">
  <defs>
    <style>
      .cls-1 {
        stroke-width: 12px;
      }

      .cls-1, .cls-2 {
        fill: #fff;
      }

      .cls-1, .cls-3, .cls-4 {
        stroke: #000;
        stroke-linecap: round;
        stroke-miterlimit: 10;
      }

      .cls-2 {
        opacity: .24;
      }

      .cls-5 {
        fill: #382a1a;
      }

      .cls-3 {
        fill: #f79e36;
      }

      .cls-3, .cls-4 {
        stroke-width: 14px;
      }

      .cls-4 {
        fill: none;
      }
    </style>
  </defs>
  <g id="Updog">
    <path id="main" class="cls-3" d="M77.4,278.32s14.05,37.27,19.81,79.86-6.57,89.55-6.57,89.55c0,0,39.71-4.6,65.03,25.32s11.51,50.65,20.72,50.65h331.5s2.3-33.38,29.93-55.25,61-17.27,61-17.27c0,0-24.17-66.76-23.02-110.5.42-16,6.2-54.01,10.45-80.15,2.53-15.55,4.52-26.9,4.52-26.9,41.14-27.89,32.23-132.37,33.38-157.69,5.76-31.08,52.58-45.8-16.11-64.46-93.23-25.32-153.09,63.31-192.74,95.54-63.79-33.64-146.63,2.11-169.84,0-37.98-3.45-63.31-42.59-90.93-37.98s-29.93,27.62-58.7,41.44-57.55,1.15-72.51,16.11,1.15,128.91,10.36,146.18,67.28-9.12,82.87-33.38c0,0,87.48-77.12,95.54-80.57"/>
    <ellipse class="cls-1" cx="231.07" cy="281.42" rx="33.24" ry="30.08"/>
    <ellipse class="cls-1" cx="423.29" cy="281.42" rx="33.24" ry="30.08"/>
    <path class="cls-5" d="M317.97,322.27c24.17,0,34.53,4.6,47.19,12.66,12.66,8.06,8.7,73.71-47.19,73.67-32.98-.02-48.31-18.4-48.34-56.4-.02-24.17,48.34-29.93,48.34-29.93Z"/>
    <path class="cls-3" d="M91.21,452.61c40.29-1.43,50.65,2.02,67.91,27.35s25.32,56.4,0,71.36-25.9,0-25.9,0c0,0-7.48,16.11-35.1,18.42s-36.83-10.36-36.83-10.36c0,0,1.15,8.06-25.32,3.45s-29.93-23.02-28.78-39.13,19.57-41.44,34.53-52.95,49.49-18.14,49.49-18.14Z"/>
    <path class="cls-3" d="M595.29,453.38c-40.29-1.43-50.65,2.02-67.91,27.35s-25.32,56.4,0,71.36c25.32,14.96,25.9,0,25.9,0,0,0,7.48,16.11,35.1,18.42s36.83-10.36,36.83-10.36c0,0-1.15,8.06,25.32,3.45,26.47-4.6,29.93-23.02,28.78-39.13-1.15-16.11-19.57-41.44-34.53-52.95-14.96-11.51-49.49-18.14-49.49-18.14Z"/>
    <path class="cls-4" d="M415.29,439.84c-56.7,34.94-125.19,33.85-156.21,24.4"/>
    <path class="cls-2" d="M514.1,175.87s16.16,34.06,19.63,47.34,15.59,24.25,25.98,23.67c3.9-.22,5.67-11,12.47-25.55,20.87-19.03,28.07-59.52,28.79-77.92.44-11.1,1.84-53.4.61-73.65,2.26-10.45,13.27-25.9,12.89-27.62-2.39-10.77-33.73-15.03-48.99-13.48-16.74,1.71-76.31,32.67-73.98,36.2,0,0-3.92,4.49,2.52,20.23.19,8.33.32,32.6,28.82,44.29-12.36,8.23-12.02,39.44-8.75,46.48Z"/>
    <ellipse cx="300.63" cy="366.53" rx="6.62" ry="14.37"/>
    <ellipse cx="341.35" cy="366.77" rx="6.62" ry="14.37"/>
    <g id="pupils">
      <ellipse cx="230.77" cy="281.42" rx="10.04" ry="8.67"/>
      <ellipse cx="423.91" cy="281.42" rx="10.04" ry="8.67"/>
    </g>
  </g>
</svg>